Coordinates
version=1
nRows=13
nColumns=38
inDegrees=no

Units are S.I. units (second, meters, Newtons, ...)
If the header above contains a line with 'inDegrees', this indicates whether rotational values are in degrees (yes) or radians (no).

endheader
time	pelvis_tilt	pelvis_list	pelvis_rotation	pelvis_tx	pelvis_ty	pelvis_tz	hip_flexion_r	hip_adduction_r	hip_rotation_r	knee_angle_r	ankle_angle_r	subtalar_angle_r	mtp_angle_r	hip_flexion_l	hip_adduction_l	hip_rotation_l	knee_angle_l	ankle_angle_l	subtalar_angle_l	mtp_angle_l	lumbar_extension	lumbar_bending	lumbar_rotation	arm_flex_r	arm_add_r	arm_rot_r	elbow_flex_r	pro_sup_r	wrist_flex_r	wrist_dev_r	arm_flex_l	arm_add_l	arm_rot_l	elbow_flex_l	pro_sup_l	wrist_flex_l	wrist_dev_l
10	2.93439	1.4859	-1.07409	0.69764	1.59567	0.918743	0.026918	0.072652	0.101089	0.428949	-0.0760684	0	0	0.411319	-0.0649398	-0.174289	0.466139	-0.390182	0	0	-0.145876	-0.058805	0.32532	0.547713	-0.512297	-0.0439333	1.11128	1.5708	0	0	0.132144	-0.606694	0.235128	0.61172	1.5708	0	0
10.01	2.99507	1.48009	-1.12972	0.698379	1.5903	0.920345	0.0173074	0.0716091	0.109788	0.411481	-0.0835367	0	0	0.404498	-0.0688236	-0.186932	0.48838	-0.372401	0	0	-0.159369	-0.063908	0.311602	0.564524	-0.505882	-0.0301987	1.1004	1.5708	0	0	0.099501	-0.606115	0.167899	0.660528	1.5708	0	0
10.02	3.04709	1.47358	-1.17681	0.698997	1.58509	0.921989	0.00578255	0.0704582	0.119675	0.390956	-0.0924872	0	0	0.396948	-0.0743615	-0.201852	0.513056	-0.356077	0	0	-0.17259	-0.0690183	0.29844	0.579322	-0.499369	-0.0177629	1.08997	1.5708	0	0	0.0683069	-0.603551	0.10532	0.707775	1.5708	0	0
10.03	3.08264	1.46865	-1.20738	0.699671	1.57995	0.923403	-0.00373372	0.0696599	0.13025	0.370133	-0.101127	0	0	0.391901	-0.0814994	-0.216941	0.539826	-0.34224	0	0	-0.181788	-0.0733041	0.288962	0.589465	-0.494305	-0.00998028	1.08033	1.5708	0	0	0.0460222	-0.600703	0.0608905	0.746743	1.5708	0	0
10.04	3.10666	1.46434	-1.2267	0.700246	1.57491	0.92461	-0.0132136	0.0693909	0.142452	0.347168	-0.11039	0	0	0.388295	-0.0904952	-0.232524	0.569657	-0.329924	0	0	-0.189046	-0.0767542	0.280733	0.598061	-0.49004	-0.0033064	1.07086	1.5708	0	0	0.025811	-0.597328	0.0226995	0.783301	1.5708	0	0
10.05	3.12581	1.46012	-1.24167	0.700668	1.57004	0.925678	-0.0235262	0.0689561	0.156045	0.322257	-0.120103	0	0	0.384643	-0.100195	-0.245435	0.6007	-0.318737	0	0	-0.1949	-0.0795559	0.274386	0.60467	-0.486834	0.00168222	1.06188	1.5708	0	0	0.00838318	-0.593773	-0.00797485	0.816585	1.5708	0	0
10.06	3.13861	1.45684	-1.25098	0.701002	1.56532	0.926561	-0.0336479	0.0685249	0.17153	0.295405	-0.130132	0	0	0.381732	-0.110384	-0.255739	0.632256	-0.30874	0	0	-0.19893	-0.0814638	0.269022	0.610092	-0.483759	0.00602036	1.0538	1.5708	0	0	-0.00683125	-0.590573	-0.0322947	0.845707	1.5708	0	0
10.07	-3.13885	1.45496	-1.25371	0.701294	1.56069	0.927241	-0.0429327	0.0680783	0.188806	0.266617	-0.141258	0	0	0.380025	-0.120908	-0.264154	0.664175	-0.300337	0	0	-0.200812	-0.0827241	0.264333	0.614356	-0.480724	0.00977784	1.04657	1.5708	0	0	-0.0204928	-0.588096	-0.0516777	0.871678	1.5708	0	0
10.08	-3.13657	1.45392	-1.25364	0.701521	1.55609	0.927774	-0.0515184	0.0671524	0.207119	0.237029	-0.153536	0	0	0.378377	-0.131335	-0.27123	0.695795	-0.293652	0	0	-0.201263	-0.0836698	0.260915	0.617544	-0.478563	0.0131219	1.03981	1.5708	0	0	-0.0323935	-0.585883	-0.0666601	0.895229	1.5708	0	0
10.09	-3.13814	1.45406	-1.25047	0.701712	1.55159	0.928186	-0.0589449	0.0656897	0.226916	0.206821	-0.166372	0	0	0.376818	-0.141558	-0.277386	0.726872	-0.288269	0	0	-0.199651	-0.0842409	0.258982	0.619292	-0.476983	0.0158366	1.03354	1.5708	0	0	-0.0417676	-0.583821	-0.0772128	0.915149	1.5708	0	0
10.1	3.13886	1.45495	-1.2429	0.701795	1.54714	0.928519	-0.0653948	0.063789	0.246589	0.176622	-0.179982	0	0	0.374974	-0.151261	-0.281419	0.757306	-0.283803	0	0	-0.196487	-0.0842851	0.257993	0.619694	-0.475784	0.0176766	1.02761	1.5708	0	0	-0.0492821	-0.581941	-0.0844336	0.932542	1.5708	0	0
10.11	3.13334	1.455	-1.23628	0.701808	1.54266	0.928855	-0.0723077	0.0615615	0.266432	0.147659	-0.194587	0	0	0.371074	-0.160564	-0.283953	0.78674	-0.279388	0	0	-0.193399	-0.0834661	0.258793	0.618778	-0.475521	0.018178	1.02218	1.5708	0	0	-0.0531419	-0.580369	-0.0861015	0.946289	1.5708	0	0
10.12	3.12367	1.45551	-1.22563	0.701726	1.53826	0.929088	-0.0782949	0.0591277	0.286611	0.119491	-0.209588	0	0	0.366893	-0.169473	-0.284406	0.81485	-0.273793	0	0	-0.189169	-0.0820986	0.260252	0.61701	-0.475807	0.0180839	1.01696	1.5708	0	0	-0.0558995	-0.579306	-0.0849444	0.958171	1.5708	0	0
